<?xml version="1.0" encoding="utf-8"?>
<!-- Generator: Adobe Illustrator 24.3.0, SVG Export Plug-In . SVG Version: 6.00 Build 0)  -->
<svg version="1.1" id="Layer_1" xmlns="http://www.w3.org/2000/svg" xmlns:xlink="http://www.w3.org/1999/xlink" x="0px" y="0px"
	 viewBox="0 0 75 75" style="enable-background:new 0 0 75 75;" xml:space="preserve">
<style type="text/css">
	.st0{fill:#616BC9;}
	.st1{fill:#1021BF;}
</style>
<g>
	<g>
		<path class="st0" d="M33.78,23.91v24.4c0,6.09,0.73,11.72-14.17,11.72c-1.74,0-3.29-0.1-4.85-0.25v-6.7c0.18,0,0.73,0,1.74,0
			c1.83,0,2.74-0.3,2.74-1.47v-27.7H33.78z M19.24,22.24v-6.29h14.54v6.29H19.24z"/>
		<path class="st1" d="M51.96,37.4c0,6.9-1.12,11.46-14.23,11.46c-2.51,0-5.12-0.12-5.86-0.18V41c0.28,0,1.77,0.06,2.32,0.06
			c2.7,0,2.98-0.9,2.98-2.7V8.3h14.79V37.4z"/>
	</g>
</g>
<g>
	<g>
	</g>
</g>
</svg>
